<svg display="none">

  <symbol id="location" viewBox="0 0 16 20" fill="none"
    xmlns="http://www.w3.org/2000/svg">
    <path fill-rule="evenodd" clip-rule="evenodd" d="M8 19C8 19 15 13 15 8C15 4.13401 11.866 1 8 1C4.13401 1 1 4.13401 1 8C1 13 8 19 8 19Z" fill="#1EB6FF" stroke="#1EB6FF" stroke-width="2" stroke-linecap="round" stroke-linejoin="round"/>
    <path fill-rule="evenodd" clip-rule="evenodd" d="M8 10C9.10457 10 10 9.10457 10 8C10 6.89543 9.10457 6 8 6C6.89543 6 6 6.89543 6 8C6 9.10457 6.89543 10 8 10Z" fill="white"/>
  </symbol>

  <symbol id="pin" viewBox="0 0 12 9" fill="none"
    xmlns="http://www.w3.org/2000/svg">
    <path fill-rule="evenodd" clip-rule="evenodd" d="M1 1L6 8L11 1H1Z" fill="#1EB6FF" stroke="#1EB6FF" stroke-width="2" stroke-linecap="round" stroke-linejoin="round"/>
  </symbol>

  <symbol id="search" viewBox="0 0 18 19" fill="none"
    xmlns="http://www.w3.org/2000/svg">
    <path d="M14.5 15.5L17 18" stroke="white" stroke-width="2" stroke-linecap="round" stroke-linejoin="round"/>
    <path fill-rule="evenodd" clip-rule="evenodd" d="M9 17C13.4183 17 17 13.4183 17 9C17 4.58172 13.4183 1 9 1C4.58172 1 1 4.58172 1 9C1 13.4183 4.58172 17 9 17Z" stroke="white" stroke-width="2" stroke-linecap="round" stroke-linejoin="round"/>
  </symbol>
</svg>